<svg height="861" viewBox="0 0 1440 861" width="1440" xmlns="http://www.w3.org/2000/svg" xmlns:xlink="http://www.w3.org/1999/xlink"><defs><path id="a" d="m0 32.1936512c39.869632 13.0667416 174.869632 19.6001125 405 19.6001125 162.86299 0 395.473643-44.42028545 673.3987-50.96460128 76.52768-1.80200124 197.06144 8.65282834 361.6013 31.36448878v759.7165678c-211.68719 46.059854-440.853853 69.089781-687.5 69.089781s-497.47948-23.029927-752.5-69.089781z"/><mask id="b" fill="#fff"><use fill="#fff" fill-rule="evenodd" xlink:href="#a"/></mask><mask id="c" fill="#fff"><path d="m0 .61308475h119.623729v120.42081325h-119.623729z" fill="#fff" fill-rule="evenodd"/></mask><mask id="d" fill="#fff"><path d="m0 .70827296h9.53764064v9.20257611h-9.53764064z" fill="#fff" fill-rule="evenodd"/></mask><mask id="e" fill="#fff"><path d="m.57495.255h47.745v47.74485h-47.745z" fill="#fff" fill-rule="evenodd"/></mask><mask id="f" fill="#fff"><path d="m0 .66h59.7105v33.24h-59.7105z" fill="#fff" fill-rule="evenodd"/></mask><mask id="g" fill="#fff"><path d="m.74164934.25528089h5.73335838v12.74471911h-5.73335838z" fill="#fff" fill-rule="evenodd"/></mask><mask id="h" fill="#fff"><path d="m.34091853.11h6.85183423v13.5982501h-6.85183423z" fill="#fff" fill-rule="evenodd"/></mask><mask id="i" fill="#fff"><path d="m0 .04626614h19.9276275v6.90667075h-19.9276275z" fill="#fff" fill-rule="evenodd"/></mask></defs><g fill="none" fill-rule="evenodd"><use fill="#e4f8ff" xlink:href="#a"/><path d="m1326.77424 604.56817c-1.21646-2.07994-1.01171-4.557398-.02007-6.793936.64637-1.46961 1.62998-2.826791 2.7782-3.91093 3.81802-3.605765 9.04119-5.227958 14.07166-6.737722 8.88462-2.666178 35.82352-.212812 36.20893-14.993237.06022-2.296768-1.00368-4.473076-2.22818-6.42051-7.14623-11.351334-19.95325-18.277776-30.41968-26.175928-11.42193-8.628941-22.98438-17.069162-34.47456-25.60575-3.81802-2.834822-10.98031-8.990321-5.97393-14.28654 1.73436-1.83099 4.47643-2.409197 6.98163-2.104032 6.23087.750866 12.68657 5.858365 18.03421 8.92206 6.63235 3.802516 13.16433 7.769661 19.58791 11.901434 4.2235 2.714363 8.53935 5.521077 13.1844 7.460481 1.32888.5501 5.30347 2.553749 6.33928.823142 1.19237-2.007664-5.34764-8.464312-6.52797-9.737172l-21.63142-23.325044c-4.087-4.404815-8.174-8.813646-11.93983-13.499535-1.71429-2.132139-3.38442-4.380723-4.19942-6.994702-1.51355-4.870594.74273-10.138705 6.24292-9.118811 6.46775 1.204598 12.67453 7.432373 17.20717 11.829158 11.26135 10.917678 19.79267 24.356983 31.7044 34.660317.85915.73882 1.95116 1.212629 3.08332 1.16846 3.08733-.124475 3.69356-3.714179 2.83441-6.227774-3.21983-9.427992-7.66414-18.74757-11.5745-27.938657-2.71396-6.380357-6.03817-12.628209-8.47511-19.108949-1.67013-4.440954-.95952-9.998169 4.0589-11.91348 5.24325-1.999634 9.62333 3.256431 12.58219 6.773859 4.02277 4.782257 6.93346 10.295303 9.41055 16.009115 3.85816 8.922061 6.93747 18.064964 10.53468 27.031193 2.40482 4.187988 5.39581 7.809814 9.34229 9.789371.02008.012046.04417.024092.07227.036138 3.48078 1.702499 7.63603-.570177 8.33861-4.384739.31315-1.706515.50586-3.457198.63433-5.215912l-1.93109-30.323762c-.3011-4.762179.94748-12.696469 7.50756-11.760897 1.54969.220843 2.99901.939587 4.15927 1.987587 2.29242 2.063879 3.43662 4.878625 4.45235 7.681324 4.50454 12.423427 3.60524 25.902885 7.02178 38.559201 6.78892 25.156034 43.38327 43.43381 30.5361 71.689678-7.06995 15.543337-33.57526 28.71763-47.98416 36.579644-19.11417 10.435839-30.03828 2.288737-51.15179-1.678408-10.63906-1.995618-21.12556-3.015512-31.81279-.694652-4.67717 1.015879-9.88028 1.232706-13.9191-1.333089-1.05588-.674575-2.0154-1.533855-2.64572-2.617994" fill="#85c9b6" mask="url(#b)"/><g mask="url(#b)"><g transform="translate(1203 136)"><path d="m25.4936718 55.2059379 54.82-19.778c1.238-.446 2.28 1.018 1.452 2.042l-42.852 52.952c-.636.788-1.89.576-2.232-.376l-11.97-33.176c-.244-.676.106-1.42.782-1.664m100.7260002-55.12400003-125.36000015 45.22800003c-.676.244-1.026.988-.782 1.664l29.54799995 81.9040001c.35.97 1.64 1.166 2.26.34l95.8160002-127.13000013c.776-1.032-.264-2.444-1.482-2.006" fill="#f28466" fill-rule="evenodd"/><g fill="none" stroke="#131221"><path d="m108.718272 20.339738-3.206-8.89" stroke-width="2"/><path d="m94.265072 25.554538-3.208-8.89" stroke-width="2"/><path d="m79.810072 30.768538-3.208-8.888" stroke-width="2"/><path d="m65.354872 35.983338-3.208-8.888" stroke-width="2"/><path d="m50.899872 41.198138-3.208-8.888" stroke-width="2"/><path d="m36.446672 46.412938-3.208-8.888" stroke-width="2"/><path d="m21.991672 51.627938-3.208-8.888" stroke-width="2"/><g stroke-width=".5"><path d="m103.448672 17.217738-1.604-4.444"/><path d="m88.993672 22.432538-1.604-4.444"/><path d="m74.538472 27.647338-1.604-4.444"/><path d="m60.085472 32.862338-1.604-4.446"/><path d="m45.630272 38.077138-1.604-4.446"/><path d="m31.175272 43.291938-1.604-4.446"/><path d="m16.720072 48.506738-1.604-4.446"/><path d="m100.270872 18.364138-1.604-4.444"/><path d="m85.815872 23.578938-1.604-4.444"/><path d="m71.362672 28.793938-1.604-4.444"/><path d="m56.907672 34.008738-1.604-4.446"/><path d="m42.452472 39.223538-1.604-4.446"/><path d="m27.997472 44.438338-1.604-4.446"/><path d="m13.542472 49.653338-1.604-4.446"/><path d="m97.093272 19.510738-1.604-4.444"/><path d="m82.640072 24.725538-1.604-4.446"/><path d="m68.185072 29.940338-1.604-4.446"/><path d="m53.729872 35.155138-1.604-4.446"/><path d="m39.274872 40.370138-1.604-4.446"/><path d="m24.819672 45.584938-1.604-4.446"/><path d="m10.366672 50.799738-1.604-4.446"/></g><path d="m32.866672 108.873938-7.738 2.792" stroke-width="2"/><path d="m26.813872 92.096538-7.738 2.792" stroke-width="2"/><path d="m20.761072 75.319338-7.74 2.792" stroke-width="2"/><path d="m14.708472 58.541938-7.74 2.792" stroke-width="2"/><path d="m30.319672 113.936338-3.87 1.396" stroke-width=".5"/><path d="m24.267072 97.159138-3.87 1.396" stroke-width=".5"/><path d="m18.214272 80.381738-3.87 1.396" stroke-width=".5"/><path d="m12.161472 63.604338-3.87 1.396" stroke-width=".5"/><path d="m31.554072 117.356338-3.87 1.396" stroke-width=".5"/><path d="m25.501472 100.578938-3.872 1.396" stroke-width=".5"/><path d="m19.448672 83.801738-3.872 1.396" stroke-width=".5"/><path d="m13.395872 67.024338-3.872 1.394" stroke-width=".5"/><path d="m32.786472 120.776338-3.87 1.396" stroke-width=".5"/><path d="m26.733872 103.998938-3.87 1.394" stroke-width=".5"/><path d="m20.681072 87.221538-3.87 1.394" stroke-width=".5"/><path d="m14.628272 70.442338-3.87 1.396" stroke-width=".5"/><path d="m34.020872 124.196138-3.87 1.394" stroke-width=".5"/><path d="m27.968272 107.416938-3.87 1.396" stroke-width=".5"/><path d="m21.915472 90.639538-3.87 1.396" stroke-width=".5"/><path d="m15.862672 73.862338-3.87 1.396" stroke-width=".5"/></g></g></g><g mask="url(#b)"><g transform="translate(123 169)"><path d="m64.5520932.88368638 2.688 6.7245c.288.7215-.0615 1.5405-.783 1.8285l-53.0595 21.21000002c-.72.288-1.5375-.063-1.8255-.7845l-2.68800002-6.723c-.2895-.723.0615-1.539.783-1.8285l53.05800002-21.21000002c.7215-.288 1.539.063 1.827.783" fill="#ef6693"/><path d="m59.7078432 1.30698638 3.732 9.33600002-47.715 19.074-3.7335-9.336z" fill="#fff"/><path d="m8.98324318 23.3880364 2.48700002 6.2235-10.11000002 1.803c-.4335.0765-.8625-.162-1.0275-.5715l-.2655-.6675c-.165-.4095-.018-.879.3495-1.122z" fill="#ef6693"/><g fill="#a3aea7"><path d="m17.1790932 18.3079864 3.7305 9.336-1.728.6915-3.732-9.336z"/><path d="m20.9817432 16.7875864 3.732 9.336-1.728.6915-3.732-9.336z"/></g></g></g><g mask="url(#b)"><g transform="translate(1100 414)"><path d="m8.29116341 70.3714061-7.131-1.2675c-.7635-.1365-1.2735-.8655-1.1385-1.6305l9.99749999-56.259c.1365-.765.8655-1.27500004 1.6305-1.1385l7.131 1.266c.765.1365 1.275.867 1.1385 1.6305l-9.99749999 56.259c-.1365.765-.8655 1.275-1.6305 1.14" fill="#4b55e3"/><path d="m10.4898634 66.0340061-9.89999999-1.7595 8.9925-50.595 9.89849999 1.7595z" fill="#ffd500"/><path d="m18.5157634 11.2957061-6.6-1.173 3.8085-9.53850004c.1635-.408.5925-.6465 1.026-.57l.708.126c.435.0765.756.4485.768.8895z" fill="#4b55e3"/><g fill="#a3aea7"><path d="m18.5040634 20.9372561-9.89999999-1.758.3255-1.8345 9.89999999 1.7595z"/><path d="m17.7863134 24.9715061-9.89849999-1.7595.3255-1.8345 9.89999999 1.7595z"/></g></g></g><g mask="url(#b)"><g transform="translate(187 116)"><path d="m48.5753461 51.5233849-5.4405 4.6125c-.591.5025-1.479.429-1.9815-.162l-36.5325-43.0905c-.5025-.591-.429-1.479.1635-1.9815l5.4405-4.61249998c.5925-.5025 1.479-.429 1.9815.1635l36.5325 43.09049998c.501.591.4305 1.479-.1635 1.98" fill="#4b55e3"/><path d="m46.6710961 47.1025849-7.587 6.432-32.8725-38.7735 7.587-6.43049998z" fill="#fff"/><path d="m10.0323961 6.45243492-5.0565 4.28699998-4.863-8.91749998c-.21-.384-.12-.861.2115-1.1445l.543-.459c.333-.282.819-.2925 1.1625-.0225z" fill="#4b55e3"/><g fill="#a3aea7"><path d="m17.3712961 12.5446849-7.5855 6.432-1.1925-1.4055 7.587-6.432z"/><path d="m19.9917961 15.6346849-7.587 6.432-1.191-1.404 7.587-6.4335z"/></g></g></g><g mask="url(#b)"><g transform="translate(927 360)"><path d="m69.0232789 87.3555016c-1.50336 1.747008-3.338496 2.998944-5.510592 3.760992l-3.193344.666144c-2.239488.165888-4.375296-.22032-6.412608-1.163808-.956448-.619488-1.915488-1.241568-2.871936-1.858464-1.381536-1.091232-2.387232-2.433888-3.022272-4.033152-.86832-1.417824-1.337472-2.975616-1.407456-4.670784-.1944-1.689984.02592-3.299616.663552-4.836672.381024-1.674432 1.168992-3.157056 2.361312-4.450464l.391392-.458784c1.50336-1.747008 3.338496-2.998944 5.510592-3.760992 1.06272-.222912 2.128032-.443232 3.193344-.666144 2.239488-.16848 4.375296.22032 6.412608 1.163808.956448.619488 1.915488 1.241568 2.871936 1.861056 1.381536 1.091232 2.387232 2.431296 3.022272 4.03056.86832 1.415232 1.337472 2.975616 1.407456 4.670784.1944 1.689984-.02592 3.302208-.663552 4.836672-.381024 1.674432-1.168992 3.157056-2.361312 4.450464zm73.8979201-71.572896c-32.073408-27.431136-84.9890881-18.19324799-118.1952001 20.63232-8.408448 9.831456-15.77750397 21.314016-20.84486397 33.21648-3.825792 8.989056-9.722592 38.2968004 10.20470397 29.699136 5.528736-2.38464 9.367488-8.335872 15.321312-9.230112 5.660928-.85536 14.626656 5.012928 16.12224 10.6142404 2.288736 8.595072-7.369056 17.993664-12.348288 23.605344-25.33679997 28.545696 4.077216 47.169216 32.428512 47.827584 29.012256.671328 56.7466561-14.753664 75.2639041-36.402048 33.20352-38.8255684 34.121088-92.5344004 2.04768-119.9629444z" fill="#fff"/><path d="m84.0058165 146.809502c.723168-1.744416.974592-3.574368.754272-5.487264-.254016-1.207872-.502848-2.418336-.756864-3.626208-.863136-2.4624-2.288736-4.546368-4.266432-6.251904-1.08864-.702432-2.174688-1.404864-3.263328-2.107296-2.312064-1.070496-4.735584-1.511136-7.275744-1.32192-.282528.020736-.567648.044064-.850176.0648-1.925856.080352-3.6936.611712-5.303232 1.596672-1.811808.720576-3.335904 1.863648-4.57488 3.429216-1.353024 1.46448-2.244672 3.14928-2.677536 5.049216-.723168 1.741824-.974592 3.571776-.754272 5.484672.254016 1.210464.50544 2.418336.756864 3.626208.863136 2.4624 2.288736 4.54896 4.269024 6.251904 1.08864.702432 2.174688 1.407456 3.260736 2.107296 2.312064 1.073088 4.738176 1.513728 7.275744 1.324512l.850176-.0648c1.925856-.082944 3.6936-.614304 5.303232-1.596672 1.811808-.723168 3.335904-1.863648 4.57488-3.429216 1.353024-1.46448 2.244672-3.14928 2.677536-5.049216" fill="#de4531"/><path d="m127.381381 105.251447c-14.160096-12.1124158-33.0039357 9.87552-18.820512 22.00608 14.160096 12.109824 33.003936-9.87552 18.820512-22.00608" fill="#ffd426"/><path d="m149.441116 60.6128008c-14.160096-12.109824-33.001344 9.878112-18.820512 22.00608 14.160096 12.109824 33.006528-9.87552 18.820512-22.00608" fill="#3940c7"/><path d="m121.129218 19.4648008c-14.160096-12.10982399-33.0039359 9.878112-18.820512 22.00608 14.160096 12.109824 33.003936-9.87552 18.820512-22.00608" fill="#f28466"/><path d="m69.7093813 24.1755016c-14.160096-12.109824-33.001344 9.878112-18.820512 22.00608 14.160096 12.112416 33.006528-9.872928 18.820512-22.00608" fill="#34bf47"/></g></g><g mask="url(#b)"><g transform="translate(301 295)"><path d="m13.7442712 24.0415593c10.08 2.800678 23.9430508 27.2359322 28.8061017 33.5328814-9.3701695 11.9918644-8.4549153 33.6488135.0711864 46.2549153 8.5261017 12.604068 24.8562712 19.157288 39.8725424 16.692203 15.0183051-2.469152 28.1430513-13.488813 33.9071183-27.573559 6.437288-15.7383051 3.199322-35.5525424-9.425084-46.9423729-12.6264411-11.3898305-36.0691529-13.8935593-47.9613563-1.7410169-8.9938983-9.8928814-16.1166102-17.0684746-25.0881356-26.7701695-2.3267797-2.5179661-2.5749153-6.5369492-.2074577-9.01830511.1952543-.20745762.4067797-.39864406.6366102-.56949152-1.7776271-2.02372882-3.0081356-5.26779661-4.7877966-7.29355932-10.5132203 2.91050847-22.78372881 10.04745765-29.56881356 18.62644065 2.05220339 2.7925424 4.87525424 4.3871187 7.90372881 6.380339 1.6881356-1.7857627 3.67728815-2.180339 5.84135595-1.5783051" fill="#fff" mask="url(#c)" transform="translate(0 .42)"/><path d="m61.2142373 79.1315254c-5.8311865.6854238-12.0162712 4.9627119-15.0528814 10.5152543-1.5905084 2.9105084-1.4644067 6.5084745.2705085 9.3335593.0061017.0122034.0142373.0244068.020339.0345763 3.2583051 5.2922037 7.8955932 9.7647457 13.4318644 12.6203387 12.2786441 6.33356 28.1064407 4.641356 39.1261017-3.687457 9.1444065-6.911187 14.7640675-18.0020343 15.6305085-29.428475-1.944407 2.780339-4.460339 5.3308475-7.791864 7.5172882-17.9166106 9.4779661-29.7457632-7.5477966-45.6345767-6.9050848" fill="#00b2a5"/><path d="m79.7526102 76.644678c-1.360678 2.0440678-2.5728814 4.0677966-3.8135594 6.0223728 9.6061017 4.161356 18.8888136 9.7281356 30.9111862 3.3681356 3.329492-2.1864406 5.847458-4.7369491 7.791865-7.5172881.03661-.2542373.067118-.4779661.105762-.7301695-2.290169-6.9925424-7.958644-10.5213559-14.304406-11.2413559-8.1762716-.9294915-16.1288139 3.2501695-20.6908478 10.0983051" fill="#85c9b6"/><g fill="#00aea4"><path d="m59.5944407 67.6719322-.2928814-.1322034c-1.8569491-.8359322-4.1430508-.0284746-5.0074576 1.8325424-.8542373 1.8366102-.0325424 4.1694915 1.8305085 5.0094915l.2928813.1322034c1.8589831.8359322 4.1450848.0284746 5.0094916-1.8325424.8522033-1.8366101.0305084-4.1694915-1.8325424-5.0094915"/><path d="m63.8558644 52.467322-.2115254.081356c-1.8447458.6976271-3.0386441 2.9410169-2.2454237 4.8366101.778983 1.8691526 2.859661 2.9959322 4.8366101 2.2454238l.2115254-.0793221c1.8447458-.699661 3.0386441-2.9410169 2.2454238-4.838644-.7789831-1.8691526-2.859661-2.9938983-4.8366102-2.2454238"/><path d="m47.3383729 45.3804068c-4.5355932 1.718644-1.9566102 8.8067796 2.5911864 7.0820339 4.5355932-1.7186441 1.9566102-8.8067797-2.5911864-7.0820339"/></g></g></g><g mask="url(#b)"><g transform="translate(380 68)"><g fill="#1b2c4f"><path d="m48.3783 17.03895c-5.133-4.152-10.266-8.304-15.3975-12.456-.786-.636-1.9305.468-1.1355 1.1115 5.1315 4.152 10.263 8.304 15.396 12.4545.7875.6375 1.9305-.4665 1.137-1.11"/><path d="m48.516 17.49525c-.1425-1.008-1.6785-.5985-1.536.405.96 6.801 1.92 13.6005 2.88 20.4015.1425 1.0095 1.6785.5985 1.5375-.4035-.9615-6.8025-1.92-13.602-2.8815-20.403"/><path d="m60.85005 9.99165-13.1265 6.765c-.909.4695-.123 1.8495.7845 1.3815l13.1265-6.7665c.9105-.468.123-1.848-.7845-1.38"/></g><path d="m31.81245-.00015c-6.1305 0-6.255 9.531-.1095 9.531 6.129 0 6.255-9.531.1095-9.531" fill="#f50057"/><path d="m50.23275 33.2988c-6.129 0-6.255 9.531-.1095 9.531 6.1305 0 6.255-9.531.1095-9.531" fill="#f50057"/><path d="m62.98575 5.66745c-6.129 0-6.255 9.531-.1095 9.531 6.129 0 6.255-9.531.1095-9.531" fill="#f50057"/><g fill="#1b2c4f"><path d="m25.6806 44.32245c3.897-5.3295 7.7925-10.6575 11.6895-15.987.5955-.816-.561-1.905-1.164-1.08-3.897 5.328-7.794 10.6575-11.6895 15.987-.597.816.561 1.905 1.164 1.08"/><path d="m25.23225 44.4828c1.0005-.1905.516-1.7055-.4785-1.515-6.7455 1.2915-13.491 2.583-20.238 3.873-1.002.192-.516 1.7055.48 1.5165z"/><path d="m33.3285 56.43525c-2.466-4.26-4.932-8.52-7.398-12.78-.5115-.885-1.8525-.033-1.3395.852 2.4645 4.26 4.932 8.52 7.3965 12.78.513.885 1.854.033 1.341-.852"/></g><path d="m41.8905 26.94495c-.2985-6.123-9.8235-5.7825-9.525.3555.3015 6.1215 9.825 5.7825 9.525-.3555" fill="#f50057"/><path d="m9.5307 5.1321c-.2985-6.123-9.8235-5.7825-9.525.3555.3015 6.1215 9.825 5.7825 9.525-.3555" fill="#f50057" mask="url(#d)" transform="translate(0 41.83725)"/><path d="m37.7523 58.3578c-.2985-6.123-9.825-5.7825-9.525.3555.3 6.1215 9.825 5.7825 9.525-.3555" fill="#f50057"/><path d="m65.6019 55.04145c3.726 5.448 7.455 10.8975 11.181 16.3455.5715.8355 1.983.105 1.407-.738-3.7275-5.4495-7.4535-10.8975-11.1825-16.3455-.57-.8355-1.983-.105-1.4055.738" fill="#1b2c4f"/><path d="m65.59905 54.5646c-.153 1.008 1.437 1.0545 1.5885.0525 1.029-6.7905 2.058-13.581 3.0855-20.3715.1545-1.008-1.4355-1.0545-1.587-.0525-1.029 6.7905-2.0565 13.581-3.087 20.3715" fill="#1b2c4f"/><path d="m51.63315 58.21935 14.5155-2.7195c1.005-.189.6465-1.737-.3585-1.548l-14.514 2.7195c-1.005.189-.648 1.7355.357 1.548" fill="#1b2c4f"/><path d="m76.5897 76.11315c5.8725 1.7565 8.7225-7.338 2.8365-9.099-5.8725-1.7565-8.7255 7.338-2.8365 9.099" fill="#f50057"/><path d="m68.48325 38.9325c5.8725 1.7565 8.724-7.3395 2.8365-9.099-5.8725-1.7565-8.724 7.338-2.8365 9.099" fill="#f50057"/><path d="m48.34755 61.75035c5.8725 1.7565 8.724-7.3395 2.8365-9.099-5.8725-1.7565-8.724 7.338-2.8365 9.099" fill="#f50057"/></g></g><g mask="url(#b)"><path d="m47.91495 19.76985c-.195-1.095-.465-2.16-.84-3.195-.705-2.175-1.725-4.2-3.015-6.045-.585-.84-1.215-1.65-1.905-2.415-4.365-4.83-10.695-7.86-17.715-7.86-13.185 0-23.865 10.695-23.865 23.88 0 1.47.135 2.925.39 4.32.195 1.065.465 2.115.81 3.135.555 1.71 1.305 3.33 2.205 4.845.555.915 1.17 1.8 1.845 2.625 4.365 5.46 11.085 8.94 18.615 8.94 13.185 0 23.88-10.68 23.88-23.865 0-1.485-.135-2.955-.405-4.365" fill="#e87070" mask="url(#e)" transform="translate(1335.5 295.245)"/><path d="m59.3598 6.54c-.495 1.26-1.395 2.19-2.25 3.045-1.485 1.455-3.045 2.85-4.695 4.185-10.26 8.355-23.835 14.55-42.09 19.29-.21.06-.42.105-.63.165-1.395.36-2.835.675-4.26.675-.96 0-1.905-.135-2.82-.51-1.545-.615-2.52-1.785-2.61-3.135-.045-.81.225-1.515.51-2.085 1.11-2.295 2.835-4.305 4.95-5.715.195 1.065.465 2.115.81 3.135-1.29 1.05-2.34 2.385-3.06 3.885-.195.39.015.945.51 1.14 1.365.54 3.015.255 4.755-.18.15-.045.315-.075.465-.12 18.78-4.8 32.475-11.13 42.63-19.74 1.185-1.02 2.34-2.055 3.435-3.135.66-.645 1.275-1.29 1.56-2.01.21-.525.165-1.11-.09-1.38-.345-.36-1.2-.375-1.845-.39-2.055 0-4.095.3-6.075.87-.585-.84-1.215-1.65-1.905-2.415 2.55-1.005 5.55-1.41 8.055-1.455 1.245 0 2.805.15 3.915 1.29 1.11 1.125 1.395 2.925.735 4.59" fill="#353b51" mask="url(#f)" transform="translate(1331 301.245)"/></g><g mask="url(#b)"><g transform="translate(-24 304)"><path d="m119.51676 90.8886-6.1476 45.8556s-88.1892 22.062-21.8076 133.314l-91.5612 10.8636v-187.5276c27.4236-12.504 66.594-19.2024 119.5164-2.5056" fill="#df4174"/><path d="m158.02512 124.32228s-4.2684 36.3096-28.4592 47.562c-24.1896 11.2524-49.4208 7.9332-48.426 2.7156s48.426-9.486 48.426-40.3164z" fill="#fff"/><path d="m109.39764 44.85384s-29.7864-21.198-54.3612-10.812-39.042 31.3224-34.506 34.086c4.536 2.7624 39.5268-29.5428 62.3868-8.856z" fill="#fff"/><path d="m260.2332 4.116s-4.9068 47.5656-32.406 82.974c-7.7256 9.96-17.2464 18.9672-28.9272 25.7052-23.5452 13.548-53.2044 21.9708-73.7832 26.6208-14.6472 3.2952-24.6804 4.686-24.6804 4.686l-32.2224-64.4088s3.186-9.594 12.9252-22.5192c9.4116-12.5232 24.9732-28.158 49.6536-41.2668 12.9984-6.8844 27.9384-11.022 42.9876-13.3284 42.9516-6.5916 86.4528 1.5372 86.4528 1.5372" fill="#e8e8e8"/><path d="m195.19416 67.31112c0 17.1036-13.8648 30.9696-30.9696 30.9696-17.1036 0-30.9684-13.866-30.9684-30.9696s13.8648-30.9696 30.9684-30.9696c17.1048 0 30.9696 13.866 30.9696 30.9696" fill="#1f306a"/><path d="m184.008 68.08044c0 10.92-8.856 19.776-19.788 19.776-.12 0-.252 0-.372-.012-4.896-.084-9.348-1.944-12.756-4.968-4.08-3.636-6.648-8.916-6.648-14.796 0-9.864 7.2-18.036 16.632-19.536 1.02-.168 2.076-.252 3.144-.252 3.564 0 6.912.948 9.792 2.592 5.976 3.408 9.996 9.828 9.996 17.196" fill="#5b529b"/><path d="m260.2332 4.116s-4.9068 47.5656-32.406 82.974c-12.2664-47.4552-41.1204-74.442-54.0468-84.5112 42.9516-6.5916 86.4528 1.5372 86.4528 1.5372" fill="#df4174"/><path d="m125.11656 139.4154c-14.6472 3.2952-24.6792 4.6872-24.6792 4.6872l-32.2236-64.4088s3.186-9.594 12.9264-22.5204z" fill="#1f306a"/><path d="m61.3326 119.09916c-2.5608 1.9548-.42 5.9964 2.6376 4.9812 21.672-7.2 60.0816-21.6564 61.1172-33.9816 1.2396-14.7456-37.3944 8.8836-63.7548 29.0004" fill="#fff"/><path d="m174.01188 50.88432-10.164 36.96c-4.896-.084-9.348-1.944-12.756-4.968l9.984-34.332c1.02-.168 2.076-.252 3.144-.252 3.564 0 6.912.948 9.792 2.592" fill="#675cb2"/></g></g><g mask="url(#b)"><g transform="translate(989 18)"><g fill-rule="evenodd"><path d="m144.1895 77.5735c0 32.211-26.113 58.324-58.324 58.324-32.212 0-58.325-26.113-58.325-58.324 0-32.212 26.113-58.324 58.325-58.324 32.211 0 58.324 26.112 58.324 58.324" fill="#f7df69"/><path d="m56.087 54.6057c-.046 3.679.008 7.321.697 10.701.388 1.656.839 3.306 1.741 4.524.225.297.478.549.699.837.224.287.551.43.807.665.244.26.624.302.923.469.312.175.638.238.96.308 2.558.522 5.268-2.145 7.272-4.89 2.055-2.836 3.804-6.016 5.552-9.262-.524 3.668-1.674 7.238-3.504 10.572-.904 1.678-2.066 3.259-3.607 4.644-.785.677-1.712 1.263-2.779 1.658-1.063.393-2.29.54-3.453.35-.57-.124-1.13-.273-1.626-.538-.497-.263-1.057-.417-1.473-.812-.425-.364-.922-.675-1.263-1.104-.337-.43-.713-.848-.986-1.309-1.098-1.862-1.515-3.852-1.662-5.773-.285-3.852.392-7.578 1.702-11.04" fill="#353b51"/><path d="m109.754 70.6765c-.131 3.579-.173 7.105.362 10.402.549 3.276 1.947 6.248 4.661 6.793 2.821.8 5.809-.321 8.289-2.467 2.482-2.165 4.554-5.016 6.48-8.031-.681 3.535-2.184 6.966-4.688 9.839-1.251 1.439-2.867 2.651-4.766 3.446-1.934.821-4.107.787-6.161.363-1.036-.294-2.064-.781-2.93-1.486-.856-.71-1.558-1.574-2.04-2.505-.965-1.872-1.313-3.823-1.369-5.703-.092-3.758.718-7.35 2.162-10.651" fill="#353b51"/><path d="m110.6964 93.4309c0 1.719-1.394 3.111-3.111 3.111-1.719 0-3.112-1.392-3.112-3.111 0-1.718 1.393-3.111 3.112-3.111 1.717 0 3.111 1.393 3.111 3.111" fill="#e59089"/><path d="m60.5431 81.8825c0 1.718-1.393 3.111-3.111 3.111s-3.112-1.393-3.112-3.111 1.394-3.111 3.112-3.111 3.111 1.393 3.111 3.111" fill="#e59089"/><path d="m78.3712 77.5735c-.328 5.384 2.535 11.263 8.18 12.442 5.273 1.102 9.312-3.465 11.01-7.967.285-.753-.923-1.079-1.206-.332-1.591 4.222-5.44 8.345-10.324 6.866-4.604-1.393-6.682-6.536-6.41-11.009.05-.804-1.201-.801-1.25 0" fill="#353b51"/></g><path d="m80.5655 63.4084c0 9.714-7.875 17.589-17.589 17.589-9.715 0-17.59-7.875-17.59-17.589s7.875-17.589 17.59-17.589c9.714 0 17.589 7.875 17.589 17.589z" fill="none" stroke="#fff" stroke-width="2"/><path d="m134.7667 78.9533c0 9.714-7.875 17.589-17.589 17.589s-17.589-7.875-17.589-17.589 7.875-17.589 17.589-17.589 17.589 7.875 17.589 17.589z" fill="none" stroke="#fff" stroke-width="2"/><path d="m78.9962 70.6765s12.194-4.022 20.805 5.54" fill="none" stroke="#fff"/><g fill="#f7df69" fill-rule="evenodd"><path d="m145.6681 29.9895c-.652-1.116-2.29-1.647-3.42-.897-2.375 1.576-4.58 3.39-6.549 5.453-2.22 2.327 1.309 5.868 3.536 3.535 1.681-1.761 3.508-3.324 5.537-4.671 1.124-.745 1.606-2.208.896-3.42"/><path d="m157.88 47.0671c-3.316.828-6.551 1.883-9.717 3.172-1.26.513-2.12 1.659-1.746 3.076.314 1.188 1.826 2.253 3.075 1.746 3.166-1.289 6.401-2.345 9.717-3.172 3.121-.779 1.799-5.602-1.329-4.822"/><path d="m167.1075 73.6736c-4.756-.685-9.491-.991-14.296-.815-3.208.117-3.224 5.118 0 5 4.339-.159 8.667.017 12.967.636 3.147.453 4.507-4.363 1.329-4.821"/><path d="m161.1905 97.7229c-3.457-1.46-6.955-2.612-10.636-3.364-3.14-.642-4.484 4.177-1.329 4.822 3.228.659 6.403 1.577 9.442 2.859 1.252.53 2.663.367 3.419-.897.625-1.042.346-2.895-.896-3.42"/><path d="m153.3526 123.0681c-3.813-2.236-7.838-4.029-12.041-5.396-3.067-.998-4.381 3.829-1.329 4.821 3.807 1.238 7.394 2.867 10.847 4.892 2.781 1.632 5.299-2.688 2.523-4.317"/><path d="m126.5694 144.8132c-1.915-2.511-3.83-5.022-5.746-7.533-.817-1.071-2.153-1.637-3.42-.897-1.056.618-1.721 2.341-.897 3.421 1.916 2.511 3.831 5.022 5.746 7.532.817 1.072 2.153 1.638 3.42.897 1.055-.617 1.72-2.34.897-3.42"/><path d="m1.5675 2.0355c-.708 2.807-.979 5.679-.742 8.566.263 3.184 5.264 3.212 5 0-.203-2.463-.041-4.84.563-7.237.787-3.121-4.034-4.452-4.821-1.329" mask="url(#g)" transform="translate(86 141.89)"/><path d="m126.0509 13.9631c-1.055-.617-2.884-.35-3.421.897-.933 2.164-1.865 4.327-2.798 6.49-.534 1.239-.367 2.681.897 3.421 1.054.617 2.884.35 3.421-.897l2.797-6.491c.535-1.238.368-2.68-.896-3.42"/><path d="m4.9327 1.389c-1.4-2.896-5.714-.363-4.317 2.524 1.126 2.329 1.61 4.804 1.575 7.381-.046 3.218 4.954 3.22 5 0 .048-3.48-.747-6.78-2.258-9.905" mask="url(#h)" transform="translate(97 .89)"/><path d="m74.9503 12.2146c-.692-2.728-1.385-5.455-2.077-8.182-.791-3.116-5.615-1.796-4.821 1.329.692 2.728 1.384 5.455 2.077 8.182.791 3.117 5.615 1.796 4.821-1.329"/><path d="m49.128 25.0769c-2.659-2.233-5.216-4.577-7.671-7.033-2.277-2.279-5.814 1.256-3.535 3.535 2.454 2.456 5.011 4.8 7.67 7.034 2.449 2.056 6.004-1.463 3.536-3.536"/><path d="m26.0743 46.8347c-4.757-.725-9.412-1.817-13.994-3.283-3.072-.983-4.388 3.843-1.33 4.821 4.583 1.466 9.238 2.559 13.995 3.283 3.147.48 4.505-4.337 1.329-4.821"/><path d="m17.5235 1.9462c-4.84-.323-9.626-.936-14.391-1.848-3.144-.602-4.491 4.216-1.329 4.821 5.199.996 10.438 1.674 15.72 2.027 3.212.215 3.199-4.786 0-5" mask="url(#i)" transform="translate(0 64.89)"/><path d="m19.7628 90.6111c-3.711 1.068-7.421 2.136-11.132 3.204-3.086.888-1.773 5.714 1.329 4.821 3.711-1.067 7.421-2.136 11.132-3.204 3.086-.888 1.774-5.715-1.329-4.821"/><path d="m27.5392 113.3386c-2.567 2.376-5.364 4.402-8.405 6.128-2.799 1.589-.283 5.911 2.523 4.318 3.4-1.931 6.548-4.255 9.417-6.91 2.366-2.191-1.176-5.72-3.535-3.536"/><path d="m44.0909 132.2238c-2.561 3.448-5.339 6.718-8.291 9.837-2.211 2.336 1.318 5.878 3.536 3.536 3.247-3.432 6.257-7.057 9.072-10.849 1.92-2.586-2.418-5.081-4.317-2.524"/><path d="m58.546 142.0949c-.23 2.44-1.307 4.68-2.973 6.46-2.197 2.348 1.331 5.891 3.535 3.536 2.622-2.801 4.08-6.19 4.438-9.996.301-3.202-4.701-3.181-5 0"/></g></g></g></g></svg>