<svg xmlns="http://www.w3.org/2000/svg" xmlns:xlink="http://www.w3.org/1999/xlink" width="1440" height="48" viewBox="0 0 1440 48">
    <defs>
        <path id="ry9bje33oa" d="M0 0H1440V48H0z"/>
        <path id="dtqmlr6w0c" d="M0.035 0.218L100.719 0.218 100.719 49.904 0.035 49.904z"/>
        <path id="jt216dnx5e" d="M0.035 0.218L100.719 0.218 100.719 49.904 0.035 49.904z"/>
    </defs>
    <g fill="none" fill-rule="evenodd">
        <g>
            <g>
                <g transform="translate(0 -84) translate(0 84)">
                    <mask id="m289r1xk8b" fill="#fff">
                        <use xlink:href="#ry9bje33oa"/>
                    </mask>
                    <use fill="#22A861" xlink:href="#ry9bje33oa"/>
                    <g mask="url(#m289r1xk8b)" opacity=".3">
                        <g>
                            <g>
                                <g transform="translate(1020 4) matrix(1 0 0 -1 147.226 54)">
                                    <mask id="j428gd9uhd" fill="#fff">
                                        <use xlink:href="#dtqmlr6w0c"/>
                                    </mask>
                                    <g mask="url(#j428gd9uhd)">
                                        <g>
                                            <path fill="#127942" d="M31.928 6.414S-.632 27.78 4.223 29.924c4.857 2.146 19.662-5.435 17.245-1.656C19.05 32.047-6.518 46.659 1.578 51.49c8.097 4.833 37.683-20.3 39.582-15.453 1.898 4.847-22.323 19.726-16.115 23.754 6.207 4.028 42.527-23.546 43.878-21.662 1.352 1.883-24.26 21.62-12.912 21.996 11.347.376 44.414-35.005 44.667-42.283.253-7.277-6.74-.944-11.87-5.034-5.13-4.09 4.555-11.658-8.115-12.707C68.024-.946 31.928 6.414 31.928 6.414" transform="translate(.035 -10.29)"/>
                                            <path fill="#020203" d="M23.21 18.885c-1.667-.519-2.585.362-3.55 1.138-1.053.846-2.158 1.613-3.131 2.596-1.62 1.64-2.764 3.871-5.282 3.93-.143.003.22.717.423.874 3.601 2.787 4.37-.967 5.87-2.18 2.097-1.695 4.715-2.542 6.514-4.747.157-.194-.488-1.5-.844-1.611M27.412 31.196c-2.054-.08-3.214 1.155-4.429 2.288-1.325 1.235-2.714 2.399-3.944 3.762-2.05 2.27-3.522 5.048-6.645 5.852-.178.045.255.72.502.833 4.395 1.994 5.442-2.342 7.332-4.111 2.64-2.47 5.905-4.166 8.19-7.109.2-.258-.567-1.498-1.006-1.515M46.93 42.121c-1.654-.372-2.397.528-3.242 1.326-.917.868-1.911 1.638-2.793 2.602-1.457 1.597-2.6 3.792-5.036 3.67-.137-.008.185.726.375.896 1.691 1.507 2.807 1.304 3.638.586.837-.72 1.386-1.952 2.101-2.557 1.992-1.685 4.503-2.673 5.979-5.019.129-.206-.668-1.425-1.022-1.504M69.123 45.144c-1.638-.053-2.098.907-2.699 1.798-.65.966-1.406 1.846-2.028 2.891-.519.87-.934 1.862-1.524 2.669-.589.804-1.354 1.423-2.503 1.488-.128.007.295.688.502.833 1.843 1.283 2.887.938 3.553.128.673-.815.962-2.086 1.518-2.775 1.546-1.913 3.708-3.294 4.519-5.801.07-.22-.987-1.22-1.338-1.23" transform="translate(.035 -10.29)"/>
                                        </g>
                                    </g>
                                </g>
                                <path fill="#3A3D39" d="M100.864 38.39c1.254.051 1.656.518 1.24 1.428-.267.585-.786.73-1.3.325-.223-.176-.416-.413-.564-.657-.161-.268-.538-.517-.28-.89.22-.32.565-.336.904-.205zm-12.123-.552c.645.037 1.241.503 1.235.98-.006.428-.59.96-1.088.988-.476.029-1.346-.784-1.215-1.2.15-.477.5-.8 1.068-.768zM77.78 37.76c.466.018.816.213.882.614.025.692-.376 1.19-.889 1.223-.565.035-1.027-.377-1.045-.932-.017-.543.417-.93 1.052-.905zm18.238.28c-.007.745-.363 1.123-1.022 1.083-.555-.034-1.264-.725-1.246-1.217.02-.535.754-1.083 1.501-1.12.565-.028.776.316.767 1.254zm-29.572-2.111c.539.027.655.612 1.149.706.23.044.11.422-.058.6-.21.223-.497.277-.966.228-.113-.03-.422-.05-.66-.192-.34-.205-.588-.585-.445-.965.15-.398.557-.4.98-.377zm16.956-.788c.608 0 .709.385.713.85.005.569-.452 1.166-.862 1.161-.328-.003-1.003-.708-1.019-1.062-.026-.605.426-.95 1.168-.949zm-10.37-1.25c.554-.006 1.07.468 1.058.974-.01.392-.533.81-1.035.825-.447.014-.99-.47-.99-.882-.003-.408.53-.912.967-.917zm26.585-1.678c.19.272.518.604.274 1.039-.28.498-.663.81-1.267.765-.456.036-.85-.136-1.193-.406-.497-.39-.454-.732.12-1.046.251-.136.512-.256.776-.365.434-.177.925-.509 1.29.013zm-10.22-.174c.602.002 1.05.42 1.035.971-.014.517-.639 1.062-1.235.956-.487-.087-1.081-.116-1.27-.706-.007-.566.816-1.222 1.47-1.22zm-24.854-1.87c.728-.002 1.37.562 1.387 1.219.012.438-.533.926-1.084.97-.541.043-1.412-.719-1.415-1.238-.001-.429.609-.95 1.112-.952zm19.134-.254c.475-.016.844.172 1.048.622.161.354.07.663-.193.922-.25.246-.563.253-.756-.016-.393-.548-.737-.08-1.338.06.31-.808.316-1.556 1.239-1.588zm10.318.108c-.025.495-.307.797-.824.82-.634.027-1.284-.625-1.289-1.282-.006-.367.212-.508.542-.53.665-.043 1.595.526 1.57.992zm-23.737-1.432c.578.018 1.22.563 1.227 1.04.006.503-.49.984-1.037 1.008-.594.026-1.33-.59-1.319-1.105.01-.441.63-.958 1.129-.943zm34.408-1.007c.2.277.388.523.474.86.073.28.247.562-.016.807-.277.259-.665.285-.948.102-.484-.311-.975-.657-1.132-1.283.072-.603.575-.68 1.022-.877.502-.22.423.145.6.391zM75.101 26.6c.226.167.517.241.762.385.693.408.807.849.417 1.543-.318.565-.767.638-1.464.208-.563-.348-.916-.837-.923-1.522.052-.34.074-.692.378-.907.404-.285.573.105.83.293zm14.668.034c.033.54-.559 1.13-1.1 1.164-.52.033-1.33-.54-1.31-.927.025-.528.664-.986 1.417-1.017.58-.055.957.185.993.78zm8.37-.93c.57.225.986 1.065.765 1.515-.23.467-.834.508-1.505.104-.632-.382-.782-.555-.808-.924-.02-.26.067-.465.305-.592.4-.213.817-.271 1.244-.103zm-16.366-1.097c.37.26 1.033 1.617.904 1.897-.128.276-.351.461-.727.5-.535-.099-.877-.501-1.094-1.002-.197-.458-.285-.952.125-1.358.233-.23.519-.23.792-.037zm-15.36.664c.055.424-.512.96-1.053.995-.58.038-1.324-.446-1.301-.91.025-.53.35-.888.878-1.008.506-.114 1.419.469 1.477.923zm27.75-2.469c.044.171-.017.369-.024.465-.23.397-.127.628.15.816.18.123.27.284.06.442-.104.079-.264.13-.392.118-.287-.027-1.497-1.395-1.443-1.642.098-.445.51-.537.869-.628.358-.09.679.035.78.43zm-23-.807c.544.025 1.792 1.012 1.668 1.363-.188.536-.618.829-1.08.862-.976.02-1.592-.506-1.579-1.244.01-.596.425-1.007.991-.981zm17.44-1.633c.615.046.914.517 1.029 1.067.152.735-.9 1.76-1.64 1.635-.4-.068-.518-.316-.467-1.152 0-.082-.056-.34.011-.56.16-.52.408-1.039 1.067-.99zm-10.59.354c.602.175.566.726.534 1.196-.039.575-.47.996-.885.954-.505-.051-1.188-.83-1.161-1.326.022-.418.981-.978 1.513-.824zm22.56.062c.341.513.058 1.047-.456 1.116-.505.068-.458.814-1.036.647-.14-.353-.305-.702-.413-1.067-.19-.639.185-1.036.7-1.25.538-.224.948.168 1.205.554zm-39.023.767c.002.402-.315.76-.688.776-.44.018-1.671-.82-1.663-1.164.012-.501.29-.786.802-.819.694-.044 1.547.62 1.549 1.207zm22.149-2.877c.253.624.51 1.24.298 1.94-.21.697-.78.863-1.311.371-.822-.764-.373-1.804 1.013-2.31zm-17.403-.328c.516-.008 1.375.678 1.374 1.083-.003.452-.602.945-1.112.914-.642-.04-1.214-.547-1.179-1.068.158-.437.3-.92.917-.93zm27.19-1.435c.447-.02 1.102.541 1.083.965-.02.432-.26.718-.702.786-.517.079-1.32-.435-1.353-.854-.03-.388.499-.876.972-.897zm15.844-.149c.508.031 1.047.113 1.161.772.083.485-.645 1.093-1.292 1.103-.543.008-.927-.217-.964-.816-.04-.658.356-1.049 1.095-1.059zm-38.158-.864c.433-.004 1.114.811 1.103 1.32-.01.513-.619 1.096-1.162 1.115-.632.022-1.082-.486-1.112-1.256-.026-.656.488-1.172 1.17-1.179zm-9.644-.518c.561-.028 1.148.413 1.153.845.006.483-.501.933-1.19.946-.435-.007-.806-.259-.809-.845-.003-.539.256-.917.846-.946zm17.746.623c.018.591-.347.845-.897.897-.656.061-1.265-.416-1.317-1.04.014-.493.26-.84.732-.945.59-.13 1.466.523 1.482 1.088zm5.528-2.28c.46.205 1.187.374 1.144.931-.056.721-.821.652-1.162.693-.687.062-1.087-.036-1.31-.497-.146-.303-.03-.551.17-.787.315-.371.727-.534 1.158-.34zm13.903-.691c.48-.038.692.544 1.274.31-.08.555-.312.839-.545 1.079l-.154.156-.074.077c-.306.333-.648.634-1.122.31-.39-.266-.572-.662-.447-1.13.14-.532.522-.758 1.068-.802zm-7.262 1.062c.16.567-.173.674-.625.672-.699-.004-1.368-.46-1.259-.911.12-.493.455-.869.996-.921.608-.06.904.354.888 1.16zm-18.267-3.401c.462.046 1.155-.103 1.217.696.064.828-.452 1.424-1.213 1.433-.83.01-1.207-.305-1.209-1.015-.002-.69.47-1.19 1.205-1.114zm-7.245-.743c.523.052.802.358.761.873-.046.598-.497.776-.976.847-.494-.014-1.01-.509-1.003-.927.007-.438.634-.85 1.218-.793zm-4.67-.44c.585.185.631.56.175 1.766-.6-.338-1.411-.377-1.197-1.26.112-.464.523-.666 1.022-.507zM81.41 8.9l.027.103.073.061c.415.365.52.786.165 1.298-.341.49-.773.307-1.157.119-.56-.276-.529-.843-.547-1.359-.013-.366.109-.684.521-.747.46-.07.783.098.918.525zm13.254-.689c.508-.022 1.524.605 1.535.93.014.384-.639.921-1.147.943-.61.027-1.115-.337-1.131-.85-.016-.518.08-.993.743-1.023zm16.034-.611c.44-.02 1.019.525 1.022.961.007.813-.266 1.174-.904 1.197-.673.024-1.163-.387-1.16-.975 0-.574.518-1.16 1.042-1.183zm-30.1 1.226c-.107.169-.11.384.045.527.162.15.36.074.512-.046.07-.055.125-.131.18-.207l.075-.106-.077-.068c-.072-.066-.144-.13-.227-.174-.176-.092-.383-.124-.508.074zm-9.473-1.852c.044.638-.384 1.083-1.053 1.094-.867.014-1.464-.557-1.487-1.424.07-.399-.07-.926.597-.957 1.035-.048 1.89.516 1.943 1.287zm4.345-1.891c.944.046 1.72.572 1.726 1.095.008.588-.6 1.069-1.302 1.03-.83-.045-1.347-.584-1.313-1.39.028-.655.516-.703.89-.735zm29.96 1.044c.05.485-.147.976-.746 1.053-.5.064-1.31-.727-1.36-1.279-.046-.493.256-.658 1.36-.746.708-.047.703.565.746.972zM63.415 4.851c.848.061 1.115.344 1.066 1.004-.042.572-.446.851-1.125.779-.913-.098-1.409-.53-1.295-1.254.134-.855.838-.566 1.354-.529zm18.747-1.568c.5.005.798.284.857.772.066.54-.572 1.1-1.228 1.106-.546-.002-.942-.194-.94-.814.002-.572.615-1.07 1.31-1.064zM92.328 2.23c.579.006 1.139.547 1.14 1.101 0 .554-.479 1.178-.902 1.175-.49-.004-1.105-.744-1.128-1.356-.02-.543.35-.927.89-.92zm6.54.176c.46.027.68.287.65.744-.036.558-.615 1.256-.998 1.21-.42-.05-.794-.63-.784-1.218.01-.506.421-.78 1.133-.736z" transform="translate(1020 4) matrix(1 0 0 -1 147.226 54)"/>
                            </g>
                            <path fill="#033219" d="M14.893 61.304c-.33-.561-.274-1.23-.005-1.832.174-.397.44-.763.751-1.055 1.034-.973 2.447-1.41 3.809-1.817 2.404-.72 9.695-.058 9.8-4.044.016-.62-.272-1.207-.604-1.732-1.934-3.061-5.4-4.93-8.232-7.06-3.092-2.327-6.22-4.603-9.33-6.906-1.034-.764-2.972-2.424-1.617-3.853.469-.494 1.211-.65 1.89-.567 1.685.202 3.433 1.58 4.88 2.406 1.795 1.026 3.563 2.096 5.301 3.21 1.143.732 2.311 1.489 3.568 2.012.36.148 1.436.689 1.716.222.323-.541-1.447-2.283-1.767-2.626L19.2 31.37c-1.106-1.188-2.212-2.377-3.231-3.64-.464-.576-.916-1.182-1.137-1.887-.41-1.314.201-2.735 1.69-2.46 1.75.325 3.43 2.005 4.657 3.19 3.047 2.945 5.356 6.57 8.58 9.349.233.199.528.327.834.315.836-.034 1-1.002.768-1.68-.872-2.543-2.075-5.056-3.133-7.535-.734-1.72-1.634-3.406-2.294-5.154-.452-1.198-.26-2.696 1.099-3.213 1.419-.54 2.604.878 3.405 1.827 1.089 1.29 1.877 2.777 2.547 4.318 1.044 2.406 1.878 4.872 2.851 7.29.65 1.13 1.46 2.106 2.528 2.64l.02.01c.942.46 2.067-.154 2.257-1.182.085-.46.137-.933.171-1.407l-.522-8.179c-.082-1.284.256-3.424 2.032-3.172.42.06.811.254 1.125.536.62.557.93 1.316 1.205 2.072 1.22 3.35.976 6.986 1.9 10.4 1.838 6.784 11.742 11.714 8.265 19.335-1.913 4.192-9.087 7.745-12.986 9.866-5.173 2.814-8.13.617-13.844-.453-2.88-.538-5.718-.813-8.61-.187-1.266.274-2.674.332-3.767-.36-.286-.182-.545-.414-.716-.706" transform="translate(1020 4) rotate(28 32.275 41.462)"/>
                            <path fill="#85C9B6" d="M108.693 51.854c-.33-.561-.274-1.23-.005-1.832.174-.397.44-.763.751-1.055 1.034-.973 2.447-1.41 3.809-1.817 2.404-.72 9.695-.058 9.8-4.044.016-.62-.272-1.207-.604-1.732-1.934-3.061-5.4-4.93-8.232-7.06-3.092-2.327-6.22-4.603-9.33-6.906-1.034-.764-2.972-2.424-1.617-3.853.469-.494 1.211-.65 1.89-.567 1.685.202 3.433 1.58 4.88 2.406 1.795 1.026 3.563 2.096 5.301 3.21 1.143.732 2.311 1.489 3.568 2.012.36.148 1.436.689 1.716.222.323-.541-1.447-2.283-1.767-2.626L113 21.92c-1.106-1.188-2.212-2.377-3.231-3.64-.464-.576-.916-1.182-1.137-1.887-.41-1.314.201-2.735 1.69-2.46 1.75.325 3.43 2.005 4.657 3.19 3.047 2.945 5.356 6.57 8.58 9.349.233.199.528.327.834.315.836-.034 1-1.002.768-1.68-.872-2.543-2.075-5.056-3.133-7.535-.734-1.72-1.634-3.406-2.294-5.154-.452-1.198-.26-2.696 1.099-3.213 1.419-.54 2.604.878 3.405 1.827 1.089 1.29 1.877 2.777 2.547 4.318 1.044 2.406 1.878 4.872 2.851 7.29.65 1.13 1.46 2.106 2.528 2.64l.02.01c.942.46 2.067-.154 2.257-1.182.085-.46.137-.933.171-1.407l-.522-8.179c-.082-1.284.256-3.424 2.032-3.172.42.06.811.254 1.125.536.62.557.93 1.316 1.205 2.072 1.22 3.35.976 6.986 1.9 10.4 1.838 6.784 11.742 11.714 8.265 19.335-1.913 4.192-9.087 7.745-12.986 9.866-5.173 2.814-8.13.617-13.844-.453-2.88-.538-5.718-.813-8.61-.187-1.266.274-2.674.332-3.767-.36-.286-.182-.545-.414-.716-.706" transform="translate(1020 4) rotate(28 126.075 32.012)"/>
                            <path fill="#2FC776" d="M67.695 47.516c-.228-.386-.19-.845-.004-1.26.12-.272.305-.523.52-.724.715-.668 1.693-.969 2.634-1.249 1.664-.494 6.707-.039 6.779-2.778.011-.425-.188-.828-.417-1.19-1.338-2.103-3.736-3.386-5.695-4.85-2.138-1.598-4.303-3.162-6.454-4.744-.715-.525-2.056-1.666-1.118-2.647.324-.34.838-.447 1.307-.39 1.166.139 2.375 1.085 3.376 1.653 1.241.705 2.464 1.44 3.667 2.205.79.503 1.599 1.023 2.468 1.383.249.102.993.473 1.187.152.223-.372-1.001-1.568-1.222-1.804l-4.05-4.322c-.765-.816-1.53-1.633-2.235-2.502-.321-.395-.634-.811-.786-1.296-.284-.902.139-1.878 1.169-1.69 1.21.224 2.372 1.378 3.22 2.193 2.11 2.023 3.706 4.513 5.936 6.422.161.137.365.225.577.216.578-.023.692-.688.531-1.153-.603-1.747-1.435-3.474-2.167-5.177-.508-1.183-1.13-2.34-1.586-3.541-.313-.823-.18-1.853.76-2.208.981-.37 1.801.604 2.355 1.256.753.886 1.298 1.907 1.762 2.966.722 1.653 1.298 3.347 1.972 5.009.45.776 1.01 1.447 1.749 1.814l.013.006c.652.316 1.43-.105 1.561-.812.06-.316.095-.64.12-.967l-.362-5.618c-.057-.883.177-2.353 1.405-2.18.29.041.562.174.779.369.429.382.643.904.833 1.423.844 2.302.675 4.8 1.315 7.145 1.27 4.66 8.122 8.048 5.717 13.283-1.324 2.88-6.286 5.322-8.984 6.778-3.578 1.934-5.623.424-9.576-.31-1.991-.37-3.955-.56-5.955-.13-.876.189-1.85.229-2.606-.246-.198-.125-.377-.285-.495-.485" transform="translate(1020 4) scale(-1 1) rotate(23 0 -357.944)"/>
                        </g>
                    </g>
                    <g mask="url(#m289r1xk8b)">
                        <g>
                            <g transform="translate(1025 4) translate(-3 2)">
                                <path stroke="#FFF" d="M39.053 1.6h7.386c.645.001 1.168.524 1.169 1.17v3.405c0 .646-.523 1.17-1.169 1.17 0 0 0 0 0 0l-7.386-.001c-.645 0-1.168-.524-1.169-1.17V2.77c0-.646.523-1.169 1.169-1.17V1.6z" transform="rotate(-12 42.746 4.472)"/>
                                <ellipse cx="58.437" cy="12.866" fill="#FFF" opacity=".5" rx="7.735" ry="7.731"/>
                                <ellipse cx="81.421" cy="12.866" fill="#4028CC" opacity=".2" rx="7.735" ry="7.731"/>
                                <ellipse cx="81.421" cy="12.866" fill="#FFF" rx="6.851" ry="6.848"/>
                                <ellipse cx="100.994" cy="6.206" stroke="#FFF" rx="1.328" ry="1.287"/>
                                <path stroke="#D7F9E7" stroke-dasharray="0 .75" stroke-linecap="square" d="M2.357 31.52c6 .215 10.951 5.197 19.866 1.165 8.914-4.033 6.209-11.557 1.15-9.298-5.057 2.26 1.388 11.758 7.144 4.601 5.756-7.156 7.337-12.042 11.554-14.822 2.812-1.854 6.233-1.853 10.264 0" transform="rotate(18 27.346 23.015)"/>
                                <ellipse cx="113.665" cy="8.868" stroke="#FFF" rx="3.735" ry="3.733"/>
                            </g>
                            <g stroke-linecap="round">
                                <path stroke="#2B3433" stroke-width=".5" d="M32.055 39.02L44.082 50.627 52.483 42.226 40.734 30.595 51.723 24.779 15.483 13.627 26.974 50.627z" transform="translate(1025 4) rotate(3 29.086 1218.885)"/>
                                <path stroke="#FFF" d="M22.984 6.841l3.094-3.021m-10.552.663V0M8.398 6.841l-3.6-3.021m0 10.44H0m8.398 7.104l-3.6 3.515" transform="translate(1025 4) rotate(3 29.086 1218.885)"/>
                            </g>
                        </g>
                    </g>
                    <g mask="url(#m289r1xk8b)">
                        <g>
                            <g>
                                <g transform="translate(160) rotate(180 66.313 30.831)">
                                    <mask id="ber6hdh5hf" fill="#fff">
                                        <use xlink:href="#jt216dnx5e"/>
                                    </mask>
                                    <g mask="url(#ber6hdh5hf)">
                                        <g>
                                            <path fill="#0FDB6F" d="M31.928 6.414S-.632 27.78 4.223 29.924c4.857 2.146 19.662-5.435 17.245-1.656C19.05 32.047-6.518 46.659 1.578 51.49c8.097 4.833 37.683-20.3 39.582-15.453 1.898 4.847-22.323 19.726-16.115 23.754 6.207 4.028 42.527-23.546 43.878-21.662 1.352 1.883-24.26 21.62-12.912 21.996 11.347.376 44.414-35.005 44.667-42.283.253-7.277-6.74-.944-11.87-5.034-5.13-4.09 4.555-11.658-8.115-12.707C68.024-.946 31.928 6.414 31.928 6.414" transform="translate(.035 -10.29)"/>
                                            <path fill="#020203" d="M23.21 18.885c-1.667-.519-2.585.362-3.55 1.138-1.053.846-2.158 1.613-3.131 2.596-1.62 1.64-2.764 3.871-5.282 3.93-.143.003.22.717.423.874 3.601 2.787 4.37-.967 5.87-2.18 2.097-1.695 4.715-2.542 6.514-4.747.157-.194-.488-1.5-.844-1.611M27.412 31.196c-2.054-.08-3.214 1.155-4.429 2.288-1.325 1.235-2.714 2.399-3.944 3.762-2.05 2.27-3.522 5.048-6.645 5.852-.178.045.255.72.502.833 4.395 1.994 5.442-2.342 7.332-4.111 2.64-2.47 5.905-4.166 8.19-7.109.2-.258-.567-1.498-1.006-1.515M46.93 42.121c-1.654-.372-2.397.528-3.242 1.326-.917.868-1.911 1.638-2.793 2.602-1.457 1.597-2.6 3.792-5.036 3.67-.137-.008.185.726.375.896 1.691 1.507 2.807 1.304 3.638.586.837-.72 1.386-1.952 2.101-2.557 1.992-1.685 4.503-2.673 5.979-5.019.129-.206-.668-1.425-1.022-1.504M69.123 45.144c-1.638-.053-2.098.907-2.699 1.798-.65.966-1.406 1.846-2.028 2.891-.519.87-.934 1.862-1.524 2.669-.589.804-1.354 1.423-2.503 1.488-.128.007.295.688.502.833 1.843 1.283 2.887.938 3.553.128.673-.815.962-2.086 1.518-2.775 1.546-1.913 3.708-3.294 4.519-5.801.07-.22-.987-1.22-1.338-1.23" transform="translate(.035 -10.29)"/>
                                        </g>
                                    </g>
                                </g>
                                <path fill="#3A3D39" d="M100.864 38.39c1.254.051 1.656.518 1.24 1.428-.267.585-.786.73-1.3.325-.223-.176-.416-.413-.564-.657-.161-.268-.538-.517-.28-.89.22-.32.565-.336.904-.205zm-12.123-.552c.645.037 1.241.503 1.235.98-.006.428-.59.96-1.088.988-.476.029-1.346-.784-1.215-1.2.15-.477.5-.8 1.068-.768zM77.78 37.76c.466.018.816.213.882.614.025.692-.376 1.19-.889 1.223-.565.035-1.027-.377-1.045-.932-.017-.543.417-.93 1.052-.905zm18.238.28c-.007.745-.363 1.123-1.022 1.083-.555-.034-1.264-.725-1.246-1.217.02-.535.754-1.083 1.501-1.12.565-.028.776.316.767 1.254zm-29.572-2.111c.539.027.655.612 1.149.706.23.044.11.422-.058.6-.21.223-.497.277-.966.228-.113-.03-.422-.05-.66-.192-.34-.205-.588-.585-.445-.965.15-.398.557-.4.98-.377zm16.956-.788c.608 0 .709.385.713.85.005.569-.452 1.166-.862 1.161-.328-.003-1.003-.708-1.019-1.062-.026-.605.426-.95 1.168-.949zm-10.37-1.25c.554-.006 1.07.468 1.058.974-.01.392-.533.81-1.035.825-.447.014-.99-.47-.99-.882-.003-.408.53-.912.967-.917zm26.585-1.678c.19.272.518.604.274 1.039-.28.498-.663.81-1.267.765-.456.036-.85-.136-1.193-.406-.497-.39-.454-.732.12-1.046.251-.136.512-.256.776-.365.434-.177.925-.509 1.29.013zm-10.22-.174c.602.002 1.05.42 1.035.971-.014.517-.639 1.062-1.235.956-.487-.087-1.081-.116-1.27-.706-.007-.566.816-1.222 1.47-1.22zm-24.854-1.87c.728-.002 1.37.562 1.387 1.219.012.438-.533.926-1.084.97-.541.043-1.412-.719-1.415-1.238-.001-.429.609-.95 1.112-.952zm19.134-.254c.475-.016.844.172 1.048.622.161.354.07.663-.193.922-.25.246-.563.253-.756-.016-.393-.548-.737-.08-1.338.06.31-.808.316-1.556 1.239-1.588zm10.318.108c-.025.495-.307.797-.824.82-.634.027-1.284-.625-1.289-1.282-.006-.367.212-.508.542-.53.665-.043 1.595.526 1.57.992zm-23.737-1.432c.578.018 1.22.563 1.227 1.04.006.503-.49.984-1.037 1.008-.594.026-1.33-.59-1.319-1.105.01-.441.63-.958 1.129-.943zm34.408-1.007c.2.277.388.523.474.86.073.28.247.562-.016.807-.277.259-.665.285-.948.102-.484-.311-.975-.657-1.132-1.283.072-.603.575-.68 1.022-.877.502-.22.423.145.6.391zM75.101 26.6c.226.167.517.241.762.385.693.408.807.849.417 1.543-.318.565-.767.638-1.464.208-.563-.348-.916-.837-.923-1.522.052-.34.074-.692.378-.907.404-.285.573.105.83.293zm14.668.034c.033.54-.559 1.13-1.1 1.164-.52.033-1.33-.54-1.31-.927.025-.528.664-.986 1.417-1.017.58-.055.957.185.993.78zm8.37-.93c.57.225.986 1.065.765 1.515-.23.467-.834.508-1.505.104-.632-.382-.782-.555-.808-.924-.02-.26.067-.465.305-.592.4-.213.817-.271 1.244-.103zm-16.366-1.097c.37.26 1.033 1.617.904 1.897-.128.276-.351.461-.727.5-.535-.099-.877-.501-1.094-1.002-.197-.458-.285-.952.125-1.358.233-.23.519-.23.792-.037zm-15.36.664c.055.424-.512.96-1.053.995-.58.038-1.324-.446-1.301-.91.025-.53.35-.888.878-1.008.506-.114 1.419.469 1.477.923zm27.75-2.469c.044.171-.017.369-.024.465-.23.397-.127.628.15.816.18.123.27.284.06.442-.104.079-.264.13-.392.118-.287-.027-1.497-1.395-1.443-1.642.098-.445.51-.537.869-.628.358-.09.679.035.78.43zm-23-.807c.544.025 1.792 1.012 1.668 1.363-.188.536-.618.829-1.08.862-.976.02-1.592-.506-1.579-1.244.01-.596.425-1.007.991-.981zm17.44-1.633c.615.046.914.517 1.029 1.067.152.735-.9 1.76-1.64 1.635-.4-.068-.518-.316-.467-1.152 0-.082-.056-.34.011-.56.16-.52.408-1.039 1.067-.99zm-10.59.354c.602.175.566.726.534 1.196-.039.575-.47.996-.885.954-.505-.051-1.188-.83-1.161-1.326.022-.418.981-.978 1.513-.824zm22.56.062c.341.513.058 1.047-.456 1.116-.505.068-.458.814-1.036.647-.14-.353-.305-.702-.413-1.067-.19-.639.185-1.036.7-1.25.538-.224.948.168 1.205.554zm-39.023.767c.002.402-.315.76-.688.776-.44.018-1.671-.82-1.663-1.164.012-.501.29-.786.802-.819.694-.044 1.547.62 1.549 1.207zm22.149-2.877c.253.624.51 1.24.298 1.94-.21.697-.78.863-1.311.371-.822-.764-.373-1.804 1.013-2.31zm-17.403-.328c.516-.008 1.375.678 1.374 1.083-.003.452-.602.945-1.112.914-.642-.04-1.214-.547-1.179-1.068.158-.437.3-.92.917-.93zm27.19-1.435c.447-.02 1.102.541 1.083.965-.02.432-.26.718-.702.786-.517.079-1.32-.435-1.353-.854-.03-.388.499-.876.972-.897zm15.844-.149c.508.031 1.047.113 1.161.772.083.485-.645 1.093-1.292 1.103-.543.008-.927-.217-.964-.816-.04-.658.356-1.049 1.095-1.059zm-38.158-.864c.433-.004 1.114.811 1.103 1.32-.01.513-.619 1.096-1.162 1.115-.632.022-1.082-.486-1.112-1.256-.026-.656.488-1.172 1.17-1.179zm-9.644-.518c.561-.028 1.148.413 1.153.845.006.483-.501.933-1.19.946-.435-.007-.806-.259-.809-.845-.003-.539.256-.917.846-.946zm17.746.623c.018.591-.347.845-.897.897-.656.061-1.265-.416-1.317-1.04.014-.493.26-.84.732-.945.59-.13 1.466.523 1.482 1.088zm5.528-2.28c.46.205 1.187.374 1.144.931-.056.721-.821.652-1.162.693-.687.062-1.087-.036-1.31-.497-.146-.303-.03-.551.17-.787.315-.371.727-.534 1.158-.34zm13.903-.691c.48-.038.692.544 1.274.31-.08.555-.312.839-.545 1.079l-.154.156-.074.077c-.306.333-.648.634-1.122.31-.39-.266-.572-.662-.447-1.13.14-.532.522-.758 1.068-.802zm-7.262 1.062c.16.567-.173.674-.625.672-.699-.004-1.368-.46-1.259-.911.12-.493.455-.869.996-.921.608-.06.904.354.888 1.16zm-18.267-3.401c.462.046 1.155-.103 1.217.696.064.828-.452 1.424-1.213 1.433-.83.01-1.207-.305-1.209-1.015-.002-.69.47-1.19 1.205-1.114zm-7.245-.743c.523.052.802.358.761.873-.046.598-.497.776-.976.847-.494-.014-1.01-.509-1.003-.927.007-.438.634-.85 1.218-.793zm-4.67-.44c.585.185.631.56.175 1.766-.6-.338-1.411-.377-1.197-1.26.112-.464.523-.666 1.022-.507zM81.41 8.9l.027.103.073.061c.415.365.52.786.165 1.298-.341.49-.773.307-1.157.119-.56-.276-.529-.843-.547-1.359-.013-.366.109-.684.521-.747.46-.07.783.098.918.525zm13.254-.689c.508-.022 1.524.605 1.535.93.014.384-.639.921-1.147.943-.61.027-1.115-.337-1.131-.85-.016-.518.08-.993.743-1.023zm16.034-.611c.44-.02 1.019.525 1.022.961.007.813-.266 1.174-.904 1.197-.673.024-1.163-.387-1.16-.975 0-.574.518-1.16 1.042-1.183zm-30.1 1.226c-.107.169-.11.384.045.527.162.15.36.074.512-.046.07-.055.125-.131.18-.207l.075-.106-.077-.068c-.072-.066-.144-.13-.227-.174-.176-.092-.383-.124-.508.074zm-9.473-1.852c.044.638-.384 1.083-1.053 1.094-.867.014-1.464-.557-1.487-1.424.07-.399-.07-.926.597-.957 1.035-.048 1.89.516 1.943 1.287zm4.345-1.891c.944.046 1.72.572 1.726 1.095.008.588-.6 1.069-1.302 1.03-.83-.045-1.347-.584-1.313-1.39.028-.655.516-.703.89-.735zm29.96 1.044c.05.485-.147.976-.746 1.053-.5.064-1.31-.727-1.36-1.279-.046-.493.256-.658 1.36-.746.708-.047.703.565.746.972zM63.415 4.851c.848.061 1.115.344 1.066 1.004-.042.572-.446.851-1.125.779-.913-.098-1.409-.53-1.295-1.254.134-.855.838-.566 1.354-.529zm18.747-1.568c.5.005.798.284.857.772.066.54-.572 1.1-1.228 1.106-.546-.002-.942-.194-.94-.814.002-.572.615-1.07 1.31-1.064zM92.328 2.23c.579.006 1.139.547 1.14 1.101 0 .554-.479 1.178-.902 1.175-.49-.004-1.105-.744-1.128-1.356-.02-.543.35-.927.89-.92zm6.54.176c.46.027.68.287.65.744-.036.558-.615 1.256-.998 1.21-.42-.05-.794-.63-.784-1.218.01-.506.421-.78 1.133-.736z" transform="translate(160) rotate(180 66.313 30.831)"/>
                            </g>
                            <path fill="#033219" d="M12.893 50.767c-.33-.561-.274-1.23-.005-1.833.174-.396.44-.762.751-1.054 1.034-.973 2.447-1.41 3.809-1.818 2.404-.719 9.695-.057 9.8-4.043.016-.62-.272-1.207-.604-1.732-1.934-3.062-5.4-4.93-8.232-7.06-3.092-2.327-6.22-4.603-9.33-6.906-1.034-.764-2.972-2.425-1.617-3.853.469-.494 1.211-.65 1.89-.567 1.685.202 3.433 1.58 4.88 2.406 1.795 1.025 3.563 2.095 5.301 3.21 1.143.732 2.311 1.489 3.568 2.012.36.148 1.436.689 1.716.222.323-.542-1.447-2.283-1.767-2.626L17.2 20.834c-1.106-1.188-2.212-2.377-3.231-3.641-.464-.575-.916-1.182-1.137-1.887-.41-1.313.201-2.734 1.69-2.459 1.75.325 3.43 2.005 4.657 3.19 3.047 2.945 5.356 6.57 8.58 9.348.233.2.528.328.834.316.836-.034 1-1.002.768-1.68-.872-2.543-2.075-5.056-3.133-7.535-.734-1.721-1.634-3.406-2.294-5.154-.452-1.198-.26-2.697 1.099-3.213 1.419-.54 2.604.878 3.405 1.827 1.089 1.29 1.877 2.776 2.547 4.318 1.044 2.406 1.878 4.872 2.851 7.29.65 1.13 1.46 2.106 2.528 2.64l.02.01c.942.46 2.067-.154 2.257-1.183.085-.46.137-.932.171-1.406l-.522-8.179c-.082-1.284.256-3.424 2.032-3.172.42.06.811.254 1.125.536.62.557.93 1.316 1.205 2.072 1.22 3.35.976 6.986 1.9 10.4 1.838 6.784 11.742 11.714 8.265 19.335-1.913 4.192-9.087 7.745-12.986 9.865-5.173 2.815-8.13.618-13.844-.452-2.88-.538-5.718-.814-8.61-.188-1.266.274-2.674.333-3.767-.36-.286-.181-.545-.413-.716-.705" transform="translate(160) rotate(68 30.275 30.925)"/>
                            <path fill="#85C9B6" d="M129.035 53.077c-.273-.463-.227-1.014-.005-1.511.145-.327.365-.629.622-.87.855-.801 2.024-1.162 3.15-1.498 1.988-.593 8.018-.047 8.105-3.334.013-.51-.225-.994-.5-1.427-1.599-2.524-4.465-4.064-6.808-5.82-2.557-1.92-5.145-3.796-7.717-5.694-.854-.63-2.458-2-1.337-3.177.388-.407 1.002-.535 1.563-.468 1.394.167 2.84 1.303 4.036 1.984 1.485.846 2.947 1.728 4.385 2.647.945.603 1.911 1.227 2.951 1.658.298.123 1.187.568 1.42.184.266-.447-1.198-1.883-1.462-2.166l-4.842-5.186c-.915-.98-1.83-1.96-2.673-3.002-.383-.474-.757-.974-.94-1.555-.338-1.083.167-2.254 1.398-2.028 1.448.268 2.837 1.653 3.851 2.63 2.521 2.428 4.43 5.417 7.097 7.708.192.164.437.27.69.26.691-.028.827-.826.635-1.385-.721-2.097-1.716-4.169-2.591-6.213-.608-1.418-1.352-2.808-1.897-4.249-.374-.987-.215-2.223.908-2.649 1.174-.444 2.154.725 2.817 1.507.9 1.063 1.552 2.289 2.106 3.56.864 1.983 1.553 4.016 2.358 6.01.538.931 1.208 1.736 2.091 2.176.005.003.01.006.017.008.779.379 1.709-.126 1.866-.974.07-.38.113-.77.142-1.16l-.432-6.743c-.068-1.059.212-2.823 1.68-2.615.347.05.672.209.931.442.513.459.77 1.085.997 1.708 1.008 2.762.807 5.76 1.572 8.574 1.52 5.593 9.71 9.657 6.835 15.94-1.583 3.456-7.516 6.386-10.741 8.134-4.278 2.32-6.724.509-11.45-.373-2.381-.444-4.728-.67-7.12-.155-1.047.226-2.212.274-3.116-.296-.236-.15-.451-.341-.592-.582" transform="translate(160) scale(-1 1) rotate(31 0 -480.404)"/>
                            <path fill="#127942" d="M172.371 39.139c-.164-.278-.136-.61-.003-.91.087-.196.22-.377.375-.523.514-.482 1.218-.7 1.895-.901 1.197-.357 4.826-.029 4.878-2.007.008-.307-.135-.598-.3-.859-.963-1.519-2.688-2.446-4.098-3.503-1.539-1.155-3.096-2.284-4.644-3.426-.515-.38-1.48-1.204-.805-1.912.234-.245.603-.323.94-.282.84.1 1.71.784 2.43 1.194.893.509 1.773 1.04 2.639 1.593.569.363 1.15.739 1.776.998.179.074.714.342.854.11.16-.268-.72-1.132-.88-1.303l-2.914-3.121c-.55-.59-1.1-1.18-1.608-1.807-.231-.285-.456-.586-.566-.936-.204-.652.1-1.357.841-1.22.872.161 1.708.994 2.318 1.583 1.517 1.46 2.667 3.26 4.271 4.638.116.1.263.163.416.157.416-.017.497-.497.382-.834-.434-1.261-1.033-2.509-1.56-3.739-.365-.853-.813-1.69-1.141-2.557-.225-.594-.13-1.338.546-1.594.707-.268 1.297.436 1.695.906.542.64.935 1.378 1.268 2.143.52 1.194.935 2.417 1.42 3.617.323.56.726 1.045 1.258 1.31l.01.005c.469.228 1.028-.076 1.123-.587.042-.228.068-.462.086-.698l-.26-4.058c-.041-.637.127-1.699 1.01-1.574.21.03.405.126.561.266.309.276.463.653.6 1.028.607 1.663.486 3.467.946 5.16.914 3.367 5.844 5.813 4.114 9.594-.953 2.08-4.524 3.843-6.465 4.895-2.575 1.397-4.046.307-6.89-.224-1.434-.267-2.847-.404-4.286-.093-.63.136-1.331.165-1.876-.179-.142-.09-.271-.205-.356-.35" transform="translate(160) rotate(45 181.023 29.294)"/>
                            <path fill="#033219" d="M195.085 54.788c-.186-.316-.154-.694-.003-1.035.099-.223.249-.43.424-.595.583-.55 1.38-.797 2.148-1.027 1.356-.406 5.467-.032 5.526-2.284.009-.35-.153-.682-.34-.978-1.091-1.73-3.046-2.785-4.643-3.988-1.743-1.315-3.508-2.6-5.261-3.901-.583-.432-1.676-1.37-.912-2.177.265-.279.683-.367 1.066-.32.95.114 1.936.892 2.752 1.359 1.012.579 2.009 1.183 2.99 1.813.644.413 1.303.841 2.011 1.137.203.083.81.389.968.125.182-.306-.816-1.29-.996-1.484l-3.302-3.553c-.623-.671-1.247-1.343-1.822-2.057-.262-.325-.516-.667-.64-1.066-.232-.742.113-1.544.952-1.389.987.184 1.934 1.133 2.626 1.802 1.719 1.664 3.02 3.711 4.839 5.281.13.113.297.185.47.178.471-.019.564-.566.433-.949-.492-1.436-1.17-2.856-1.767-4.256-.414-.972-.921-1.924-1.293-2.912-.255-.676-.147-1.523.62-1.815.8-.304 1.468.496 1.92 1.032.614.729 1.058 1.569 1.436 2.44.589 1.359 1.059 2.752 1.608 4.118.367.638.823 1.19 1.425 1.491l.011.006c.532.259 1.166-.087 1.273-.668.048-.26.077-.527.097-.795l-.295-4.62c-.046-.726.145-1.934 1.146-1.792.236.034.458.143.635.303.35.314.524.743.68 1.17.687 1.893.55 3.947 1.07 5.875 1.037 3.832 6.622 6.617 4.661 10.922-1.079 2.368-5.124 4.375-7.323 5.573-2.917 1.59-4.584.349-7.807-.256-1.623-.304-3.224-.46-4.855-.106-.714.155-1.508.188-2.124-.203-.161-.102-.308-.233-.404-.399" transform="translate(160) scale(-1 1) rotate(13 0 -1754.69)"/>
                        </g>
                    </g>
                </g>
            </g>
        </g>
    </g>
</svg>
