<svg height="24" viewBox="0 0 24 24" width="24" xmlns="http://www.w3.org/2000/svg" xmlns:xlink="http://www.w3.org/1999/xlink"><linearGradient id="a" x1="6.731166%" x2="93.591049%" y1="93.485019%" y2="6.618736%"><stop offset="0" stop-color="#fd5"/><stop offset=".5" stop-color="#ff543e"/><stop offset="1" stop-color="#c837ab"/></linearGradient><g fill="none"><path d="m1.6 1.6856233c-1.87501359 1.94758835-1.49126214 4.01646602-1.49126214 10.3016388 0 5.2194175-.91066407 10.4517593 3.85540971 11.6835418 1.48827961.3827573 14.67501363.3827573 16.16130483-.0019884 1.9843728-.512 3.5989126-2.1215689 3.8196194-4.9281242.0308195-.3917049.0308195-13.10819421-.0009941-13.50785247-.2346253-2.98948349-2.0748427-4.71238834-4.499635-5.06134368-.5557437-.08052816-.6670912-.10438835-3.5183844-.10935923-10.11373985.00497088-12.33074956-.44539029-14.3260583 1.62348738z" fill="url(#a)"/><path d="m12.0368466 3.18285049c-3.60984854 0-7.0377631-.32111845-8.34709126 3.03919223-.54083107 1.38786796-.46229126 3.19030679-.46229126 5.77118448 0 2.2647301-.07257476 4.3932582.46229126 5.7701903 1.30634563 3.362299 4.76209709 3.0401864 8.34510296 3.0401864 3.4567456 0 7.0208621.3598912 8.346097-3.0401864.5418253-1.4017864.4622913-3.1773825.4622913-5.7701903 0-3.44183303.1898874-5.66381361-1.479332-7.33203885-1.6900971-1.69009709-3.9757049-1.47833786-7.3310447-1.47833786zm-.7893748 1.58769708c7.5298797-.01193009 8.4882641-.84902524 7.9593632 10.77983693-.1878991 4.1129009-3.3195496 3.6615456-7.1689942 3.6615456-7.01887381 0-7.22069129-.2008233-7.22069129-7.2226796 0-7.10337866.55673787-7.21472623 6.43032229-7.22069128zm5.4918214 1.46243107c-.5835806 0-1.0568078.47322719-1.0568078 1.05680777s.4732272 1.05680776 1.0568078 1.05680776 1.0568078-.47322718 1.0568078-1.05680776-.4732272-1.05680777-1.0568078-1.05680777zm-4.7024466 1.23575922c-2.49836116 0-4.52349514 2.02612816-4.52349514 4.52448934 0 2.4983611 2.02513398 4.5234951 4.52349514 4.5234951 2.4983612 0 4.522501-2.025134 4.522501-4.5234951 0-2.49836118-2.0241398-4.52448934-4.522501-4.52448934zm0 1.58769709c3.8822524 0 3.8872233 5.87358445 0 5.87358445-3.88125825 0-3.8872233-5.87358445 0-5.87358445z" fill="#fff"/></g></svg>