<svg xmlns="http://www.w3.org/2000/svg" width="24" height="24" viewBox="0 0 24 24">
    <path fill="#0377B5" d="M21.829 0H2.171C.972 0 0 .972 0 2.171v19.658C0 23.028.972 24 2.171 24h19.658C23.028 24 24 23.028 24 21.829V2.17C24 .972 23.028 0 21.829 0zM7.427 20.723c0 .35-.283.632-.632.632h-2.69c-.348 0-.631-.283-.631-.632V9.45c0-.349.283-.631.631-.631h2.69c.349 0 .632.282.632.631v11.274zM5.45 7.755c-1.41 0-2.555-1.144-2.555-2.555 0-1.411 1.144-2.555 2.555-2.555 1.411 0 2.555 1.144 2.555 2.555 0 1.411-1.144 2.555-2.555 2.555zm16.031 13.02c0 .32-.26.58-.58.58h-2.887c-.32 0-.58-.26-.58-.58v-5.289c0-.789.23-3.457-2.062-3.457-1.779 0-2.14 1.826-2.212 2.646v6.1c0 .32-.26.58-.58.58H9.787c-.32 0-.58-.26-.58-.58V9.398c0-.321.26-.581.58-.581h2.791c.321 0 .581.26.581.58v.984c.66-.99 1.64-1.754 3.727-1.754 4.62 0 4.594 4.318 4.594 6.69v5.456z"/>
</svg>
